<svg width="512" height="512" viewBox="0 0 512 512" fill="none" xmlns="http://www.w3.org/2000/svg">
<style>
  @media (prefers-color-scheme: dark) {
    .chain {
      fill: #fff;
    }
  }
</style>
<path d="M256.012 401.896C248.596 401.896 241.667 397.837 237.95 391.304C235.166 386.394 234.427 380.693 235.867 375.228C236.101 374.337 236.431 373.387 236.918 372.278L238.319 368.952L147.405 208.788L141.858 210.787C132.846 214.034 123.445 215.677 113.888 215.677C109.373 215.677 104.74 215.281 100.147 214.509C75.3892 210.352 53.9403 195.206 41.2695 172.973C33.8927 160.045 30 145.296 30 130.349C30 83.3088 67.6232 45.0198 113.888 45.0198H326.256C321.41 49.2367 316.914 53.909 312.826 58.9575L308.408 64.4019H169.126L178.663 76.1816C182.984 81.5072 186.643 87.3674 189.563 93.6037H167.686C155.716 75.5481 135.259 64.4019 113.908 64.4019C78.1531 64.4019 49.0744 93.9799 49.0744 130.349C49.0744 166.717 78.1531 196.295 113.908 196.295C135.259 196.295 155.716 185.149 167.686 167.113H189.563C186.643 173.35 182.984 179.19 178.663 184.535C175.608 188.297 172.143 191.88 168.367 195.167L163.91 199.047L254.844 359.251L258.386 359.667C264.926 360.439 270.785 364.339 274.074 370.12C276.858 375.03 277.597 380.732 276.157 386.196C274.716 391.661 271.271 396.234 266.444 399.065C263.252 400.906 259.652 401.896 256.012 401.896Z" fill="#593CFE" class="chain"/>
<path d="M256.07 466.041C226.155 466.041 198.302 449.688 183.354 423.377L77.1993 236.366C83.2331 238.524 89.4614 240.147 95.8261 241.217L102.619 242.365L172.26 365.032L177.515 350.738C179.909 344.264 183.043 338.107 186.896 332.425L197.835 351.708C188.454 371.269 189.193 394.868 199.879 413.676C211.421 434.028 232.967 446.659 256.09 446.659C267.398 446.659 278.59 443.59 288.438 437.809C298.326 432.009 306.54 423.654 312.184 413.656L315.94 407.004L315.551 406.806C316.797 403.856 317.828 400.827 318.646 397.758C323.123 380.752 320.826 362.973 312.165 347.729C301.46 328.882 281.743 316.429 260.391 314.904L249.453 295.621C251.633 295.443 253.793 295.344 255.953 295.344C260.489 295.344 265.238 295.78 270.065 296.611C274.872 297.443 279.543 298.69 283.962 300.293L289.509 302.293L380.462 142.049L379.042 138.723C376.395 132.467 376.764 125.538 380.073 119.717C383.771 113.184 390.7 109.125 398.116 109.125C401.756 109.125 405.356 110.115 408.529 111.956C418.475 117.797 421.901 130.784 416.159 140.901C412.889 146.662 407.011 150.582 400.471 151.354L396.929 151.77L305.995 311.974L310.471 315.855C317.79 322.19 323.901 329.654 328.65 338.008L328.884 338.424C331.044 342.265 332.932 346.383 334.548 350.699C340.757 367.408 341.613 385.404 337.039 402.767C335.346 409.182 332.913 415.398 329.838 421.258L328.65 423.337C321.332 436.285 310.705 447.095 297.956 454.578C285.207 462.082 270.726 466.041 256.07 466.041Z" fill="#593CFE" class="chain"/>
<path d="M364.639 359.964C363.451 353.589 361.7 347.294 359.422 341.156L357.009 334.643L426.65 211.936L411.838 214.47C407.089 215.281 402.437 215.697 398.019 215.697C395.878 215.697 393.717 215.598 391.518 215.42L402.456 196.137C423.808 194.632 443.525 182.16 454.23 163.312C472.097 131.833 461.451 91.4062 430.504 73.2317C420.635 67.4508 409.463 64.3821 398.155 64.3821L397.629 64.4019C374.76 64.5801 353.389 77.2111 341.944 97.3653C331.258 116.173 330.519 139.772 339.9 159.333L328.962 178.616C325.049 172.835 321.877 166.598 319.483 160.006C317.848 155.512 316.563 150.76 315.668 145.89L314.597 140.01H132.729L130.608 142.92C126.618 148.384 120.525 151.512 113.908 151.512C102.424 151.512 93.0817 142.01 93.0817 130.329C93.0817 118.648 102.424 109.145 113.908 109.145C120.525 109.145 126.618 112.273 130.608 117.737L132.729 120.628H314.578L315.648 114.748C317.322 105.502 320.475 96.6526 325.03 88.4563L325.088 88.3969L325.38 87.902L325.594 87.4466L326.431 86.0806V86.041C328.456 82.6753 330.791 79.3691 333.399 76.1618C349.36 56.463 372.852 45.1188 397.844 45C397.863 45 397.882 45 397.921 45C412.908 45 427.35 48.9596 440.08 56.4234C480.058 79.9036 493.877 132.13 470.871 172.835L364.639 359.964Z" fill="#593CFE" class="chain"/>
<path d="M256.304 240.524C267.72 240.524 276.974 231.11 276.974 219.498C276.974 207.886 267.72 198.473 256.304 198.473C244.888 198.473 235.634 207.886 235.634 219.498C235.634 231.11 244.888 240.524 256.304 240.524Z" fill="#FF8600"/>
</svg>
