<svg width="234" height="213" viewBox="0 0 234 213" fill="none" xmlns="http://www.w3.org/2000/svg">
<path d="M117.04 180.5C113.23 180.5 109.67 178.45 107.76 175.15C106.33 172.67 105.95 169.79 106.69 167.03C106.81 166.58 106.98 166.1 107.23 165.54L107.95 163.86L61.24 82.96L58.39 83.97C53.76 85.61 48.93 86.44 44.02 86.44C41.7 86.44 39.32 86.24 36.96 85.85C24.24 83.75 13.22 76.1 6.70998 64.87C2.91998 58.34 0.919983 50.89 0.919983 43.34C0.919983 19.58 20.25 0.239998 44.02 0.239998H153.13C150.64 2.37 148.33 4.73 146.23 7.28L143.96 10.03H72.4L77.3 15.98C79.52 18.67 81.4 21.63 82.9 24.78H71.66C65.51 15.66 55 10.03 44.03 10.03C25.66 10.03 10.72 24.97 10.72 43.34C10.72 61.71 25.66 76.65 44.03 76.65C55 76.65 65.51 71.02 71.66 61.91H82.9C81.4 65.06 79.52 68.01 77.3 70.71C75.73 72.61 73.95 74.42 72.01 76.08L69.72 78.04L116.44 158.96L118.26 159.17C121.62 159.56 124.63 161.53 126.32 164.45C127.75 166.93 128.13 169.81 127.39 172.57C126.65 175.33 124.88 177.64 122.4 179.07C120.76 180 118.91 180.5 117.04 180.5Z" fill="white"/>
<path d="M117.07 212.9C101.7 212.9 87.39 204.64 79.71 191.35L25.17 96.89C28.27 97.98 31.47 98.8 34.74 99.34L38.23 99.92L74.01 161.88L76.71 154.66C77.94 151.39 79.55 148.28 81.53 145.41L87.15 155.15C82.33 165.03 82.71 176.95 88.2 186.45C94.13 196.73 105.2 203.11 117.08 203.11C122.89 203.11 128.64 201.56 133.7 198.64C138.78 195.71 143 191.49 145.9 186.44L147.83 183.08L147.63 182.98C148.27 181.49 148.8 179.96 149.22 178.41C151.52 169.82 150.34 160.84 145.89 153.14C140.39 143.62 130.26 137.33 119.29 136.56L113.67 126.82C114.79 126.73 115.9 126.68 117.01 126.68C119.34 126.68 121.78 126.9 124.26 127.32C126.73 127.74 129.13 128.37 131.4 129.18L134.25 130.19L180.98 49.25L180.25 47.57C178.89 44.41 179.08 40.91 180.78 37.97C182.68 34.67 186.24 32.62 190.05 32.62C191.92 32.62 193.77 33.12 195.4 34.05C200.51 37 202.27 43.56 199.32 48.67C197.64 51.58 194.62 53.56 191.26 53.95L189.44 54.16L142.72 135.08L145.02 137.04C148.78 140.24 151.92 144.01 154.36 148.23L154.48 148.44C155.59 150.38 156.56 152.46 157.39 154.64C160.58 163.08 161.02 172.17 158.67 180.94C157.8 184.18 156.55 187.32 154.97 190.28L154.36 191.33C150.6 197.87 145.14 203.33 138.59 207.11C132.04 210.9 124.6 212.9 117.07 212.9Z" fill="white"/>
<path d="M172.85 159.32C172.24 156.1 171.34 152.92 170.17 149.82L168.93 146.53L204.71 84.55L197.1 85.83C194.66 86.24 192.27 86.45 190 86.45C188.9 86.45 187.79 86.4 186.66 86.31L192.28 76.57C203.25 75.81 213.38 69.51 218.88 59.99C228.06 44.09 222.59 23.67 206.69 14.49C201.62 11.57 195.88 10.02 190.07 10.02L189.8 10.03C178.05 10.12 167.07 16.5 161.19 26.68C155.7 36.18 155.32 48.1 160.14 57.98L154.52 67.72C152.51 64.8 150.88 61.65 149.65 58.32C148.81 56.05 148.15 53.65 147.69 51.19L147.14 48.22H53.7L52.61 49.69C50.56 52.45 47.43 54.03 44.03 54.03C38.13 54.03 33.33 49.23 33.33 43.33C33.33 37.43 38.13 32.63 44.03 32.63C47.43 32.63 50.56 34.21 52.61 36.97L53.7 38.43H147.13L147.68 35.46C148.54 30.79 150.16 26.32 152.5 22.18L152.53 22.15L152.68 21.9L152.79 21.67L153.22 20.98V20.96C154.26 19.26 155.46 17.59 156.8 15.97C165 6.02 177.07 0.290003 189.91 0.230003C189.92 0.230003 189.93 0.230003 189.95 0.230003C197.65 0.230003 205.07 2.23 211.61 6C232.15 17.86 239.25 44.24 227.43 64.8L172.85 159.32Z" fill="white"/>
<path d="M117.19 98.99C123.055 98.99 127.81 94.2353 127.81 88.37C127.81 82.5047 123.055 77.75 117.19 77.75C111.325 77.75 106.57 82.5047 106.57 88.37C106.57 94.2353 111.325 98.99 117.19 98.99Z" fill="#FF8600"/>
</svg>
