<svg id="Layer_1" data-name="Layer 1" xmlns="http://www.w3.org/2000/svg" viewBox="0 0 59.21 66.07"><title>dan_hanzi</title><path d="M296.17,118.38c19.87,0,19.87.54,19.87,5.13,0,8.53,3.49,3.63-19.87,3.63-21,0-18.39,3.62-18.39-4.38S280.45,118.38,296.17,118.38Z" transform="translate(-265.11 -110.31)"/><path d="M317.69,110.31c6.44,0,5.84.88,5.8,2.47-1,38,.87,59.53.84,60.71,0,.6-9.28,2.83-11,2.78s-.83-45.25-.7-64C312.67,110.3,312.67,110.3,317.69,110.31Z" transform="translate(-265.11 -110.31)"/><path d="M280.64,110.32c-6.4,0-6.4,0-6.41,1.27-.41,42-9.12,60.11-9.12,60.8s8.34,4,10.21,4c4.11,0,10.21-45.92,10.86-64.7C286.23,110.32,286.23,110.34,280.64,110.32Z" transform="translate(-265.11 -110.31)"/><path d="M297.78,156.87c-18.61,0-20.11.4-20.11-4.74,0-8.54-1.77-4,20.11-4,19.71,0,20.29-3.92,20.29,4.09S312.51,156.87,297.78,156.87Z" transform="translate(-265.11 -110.31)"/><path d="M303.61,143.93c-4.17,0-13.86-6.37-13.86-7.6,0-2,1.94-4.4,3.17-4.4,2,0,13.69,7.34,13.69,8.63C306.61,141.53,304.44,143.93,303.61,143.93Z" transform="translate(-265.11 -110.31)"/></svg>