<?xml version="1.0" encoding="utf-8"?>
<!-- Generator: Adobe Illustrator 25.1.0, SVG Export Plug-In . SVG Version: 6.00 Build 0)  -->
<svg version="1.1" id="Layer_1" xmlns="http://www.w3.org/2000/svg" xmlns:xlink="http://www.w3.org/1999/xlink" x="0px" y="0px"
	 viewBox="0 0 3000 987.6" style="enable-background:new 0 0 3000 987.6;" xml:space="preserve">
<style type="text/css">
	.st0{fill:#FFFFFF;}
	.st1{fill:#E12991;}
	.st2{fill:#ffffff;}
<!--	.st1{fill:#E12991;}-->
<!--	.st2{fill:#010101;}-->
</style>
<g>
	<g>
		<path class="st1" d="M1137.09,103.9v361.2v50.87v361.38h-51.44V515.96h-953.6v361.38H80.62V515.96V465.1V103.9h51.44v361.2h953.6
			V103.9H1137.09z M1034.32,103.9h-51.44v258.19H234.94V103.9H183.5v309.05h850.82V103.9z M338.03,103.9h-50.87v205.84h50.87V103.9z
			 M931.08,103.9h-51.44v205.84h51.44V103.9z M183.5,877.34h51.44V619.16h747.94v258.19h51.44V567.72H183.5V877.34z M879.22,877.34
			h51.44V670.93h-51.44V877.34z M286.75,877.34h51.44V670.93h-51.44V877.34z"/>
	</g>
	<g>
		<path class="st2" d="M1422.94,103.88V331.3h-44.51v-94.22h-92.2v94.22h-44.83V103.88h44.83v90.32h92.2v-90.32H1422.94z"/>
		<path class="st2" d="M1605.81,168.85V331.3h-41.91v-18.19c-9.75,14.62-26.64,22.74-48.41,22.74c-34.44,0-61.4-24.04-61.4-67.25
			v-99.74H1496v94.54c0,22.1,13.32,33.47,32.16,33.47c20.47,0,35.74-12.02,35.74-40.29v-87.72H1605.81z"/>
		<path class="st2" d="M1885.19,231.23V331.3h-41.91v-97.14c0-19.17-9.75-30.86-27.29-30.86c-18.52,0-30.22,12.35-30.22,36.71v91.29
			h-41.91v-97.14c0-19.17-9.75-30.86-27.29-30.86c-17.87,0-30.54,12.35-30.54,36.71v91.29h-41.91V168.85h41.91v17.22
			c9.1-13.64,24.37-21.77,45.16-21.77c20.14,0,35.09,8.45,44.18,23.39c10.07-14.62,26.32-23.39,48.41-23.39
			C1860.82,164.31,1885.19,190.62,1885.19,231.23z"/>
		<path class="st2" d="M2086.24,168.85V331.3h-41.91v-19.17c-11.7,14.62-29.24,23.72-52.96,23.72c-43.21,0-78.95-37.36-78.95-85.77
			c0-48.41,35.74-85.77,78.95-85.77c23.72,0,41.26,9.1,52.96,23.72v-19.17H2086.24z M2044.33,250.08
			c0-27.29-19.17-45.81-45.16-45.81c-25.66,0-44.83,18.52-44.83,45.81c0,27.29,19.17,45.81,44.83,45.81
			C2025.16,295.89,2044.33,277.37,2044.33,250.08z"/>
		<path class="st2" d="M2275.93,231.56v99.74h-41.91v-94.54c0-22.09-13.32-33.46-32.16-33.46c-20.47,0-35.74,12.02-35.74,40.29
			v87.72h-41.91V168.85h41.91v18.19c9.75-14.62,26.64-22.74,48.41-22.74C2248.97,164.31,2275.93,188.35,2275.93,231.56z"/>
		<path class="st2" d="M1316.47,525.36h-30.25v78.95h-44.83V376.89h94.84c41.91,0,75.7,33.79,75.7,75.37
			c0,28.59-17.87,54.26-43.86,66.28l50.36,85.77h-48.41L1316.47,525.36z M1286.22,486.05h50c16.89,0,30.86-14.95,30.86-33.79
			c0-18.84-13.97-33.46-30.86-33.46h-50V486.05z"/>
		<path class="st2" d="M1437.88,396.71c0-13.97,15.57-25.99,29.54-25.99c14.29,0,22.12,12.02,22.12,25.99s-11.7,25.67-25.99,25.67
			C1449.58,422.38,1437.88,410.68,1437.88,396.71z M1442.76,441.87h41.91v162.45h-41.91V441.87z"/>
		<path class="st2" d="M1681.86,441.87v154.65c0,53.28-41.91,77.33-84.8,77.33c-34.77,0-62.7-13.32-77-39.64l35.74-20.47
			c6.82,12.67,17.54,22.74,42.56,22.74c26.31,0,42.56-14.29,42.56-39.96v-17.54c-11.37,15.27-28.92,24.69-51.98,24.69
			c-46.14,0-80.9-37.36-80.9-83.17c0-45.48,34.76-83.17,80.9-83.17c23.07,0,40.61,9.42,51.98,24.69v-20.14H1681.86z M1640.92,520.49
			c0-25.67-19.17-44.18-45.49-44.18c-26.31,0-45.48,18.52-45.48,44.18c0,25.99,19.17,44.51,45.48,44.51
			C1621.75,565,1640.92,546.48,1640.92,520.49z"/>
		<path class="st2" d="M1871.55,504.57v99.74h-41.91v-94.54c0-22.09-13.32-33.46-32.16-33.46c-20.47,0-35.74,12.02-35.74,40.29
			v87.72h-41.91V376.89h41.91v83.17c9.75-14.62,26.64-22.74,48.41-22.74C1844.59,437.32,1871.55,461.36,1871.55,504.57z"/>
		<path class="st2" d="M1963.46,482.15v67.58c0,17.54,12.67,17.87,36.71,16.57v38.01c-58.81,6.5-78.62-10.72-78.62-54.58v-67.58
			h-28.27v-40.29h28.27v-32.81l41.91-12.67v45.48h36.71v40.29H1963.46z"/>
		<path class="st2" d="M2148.63,556.88c0,35.09-30.54,51.98-65.31,51.98c-32.49,0-56.53-13.64-68.22-38.66l36.39-20.47
			c4.55,13.32,15.6,21.12,31.84,21.12c13.32,0,22.42-4.55,22.42-13.97c0-23.72-83.82-10.72-83.82-67.9
			c0-33.14,28.27-51.66,61.73-51.66c26.32,0,49.06,12.02,61.73,34.44l-35.74,19.49c-4.88-10.4-13.97-16.57-25.99-16.57
			c-10.4,0-18.84,4.55-18.84,13.32C2064.81,512.04,2148.63,497.1,2148.63,556.88z"/>
		<path class="st2" d="M1286.22,692.79v53.93h96.11v42.89h-96.11v87.72h-44.83V649.9h143.54v42.88H1286.22z"/>
		<path class="st2" d="M1400.82,796.1c0-48.41,38.01-85.77,85.77-85.77c47.76,0,86.1,37.36,86.1,85.77
			c0,48.41-38.34,85.77-86.1,85.77C1438.83,881.87,1400.82,844.51,1400.82,796.1z M1530.78,796.1c0-26.31-19.17-44.83-44.19-44.83
			c-24.69,0-43.86,18.52-43.86,44.83c0,26.32,19.17,44.83,43.86,44.83C1511.61,840.94,1530.78,822.42,1530.78,796.1z"/>
		<path class="st2" d="M1744.84,714.88v162.45h-41.91v-18.19c-9.75,14.62-26.64,22.74-48.41,22.74c-34.44,0-61.4-24.04-61.4-67.25
			v-99.74h41.91v94.54c0,22.1,13.32,33.47,32.16,33.47c20.47,0,35.74-12.02,35.74-40.29v-87.72H1744.84z"/>
		<path class="st2" d="M1934.86,777.58v99.74h-41.91v-94.54c0-22.09-13.32-33.46-32.16-33.46c-20.47,0-35.74,12.02-35.74,40.29
			v87.72h-41.91V714.88h41.91v18.19c9.75-14.62,26.64-22.74,48.41-22.74C1907.9,710.33,1934.86,734.37,1934.86,777.58z"/>
		<path class="st2" d="M2135.61,649.9v227.42h-41.91v-19.17c-11.7,14.95-28.92,23.72-52.63,23.72c-43.54,0-79.27-37.36-79.27-85.77
			c0-48.41,35.74-85.77,79.27-85.77c23.72,0,40.94,8.77,52.63,23.72V649.9H2135.61z M2093.7,796.1c0-27.29-19.17-45.81-44.84-45.81
			c-25.99,0-45.16,18.52-45.16,45.81c0,27.29,19.17,45.81,45.16,45.81C2074.53,841.92,2093.7,823.4,2093.7,796.1z"/>
		<path class="st2" d="M2337.35,714.88v162.45h-41.91v-19.17c-11.7,14.62-29.24,23.72-52.96,23.72c-43.21,0-78.95-37.36-78.95-85.77
			c0-48.41,35.74-85.77,78.95-85.77c23.72,0,41.26,9.1,52.96,23.72v-19.17H2337.35z M2295.44,796.1c0-27.29-19.17-45.81-45.16-45.81
			c-25.66,0-44.83,18.52-44.83,45.81c0,27.29,19.17,45.81,44.83,45.81C2276.27,841.92,2295.44,823.4,2295.44,796.1z"/>
		<path class="st2" d="M2433.46,755.17v67.58c0,17.54,12.67,17.87,36.71,16.57v38.01c-58.81,6.5-78.62-10.72-78.62-54.58v-67.58
			h-28.26v-40.29h28.26v-32.81l41.91-12.67v45.48h36.71v40.29H2433.46z"/>
		<path class="st2" d="M2494.84,669.72c0-13.97,11.7-25.99,25.67-25.99c14.29,0,25.99,12.02,25.99,25.99s-11.7,25.66-25.99,25.66
			C2506.54,695.39,2494.84,683.69,2494.84,669.72z M2499.71,714.88h41.91v162.45h-41.91V714.88z"/>
		<path class="st2" d="M2565,796.1c0-48.41,38.01-85.77,85.77-85.77c47.76,0,86.1,37.36,86.1,85.77c0,48.41-38.34,85.77-86.1,85.77
			C2603.01,881.87,2565,844.51,2565,796.1z M2694.96,796.1c0-26.31-19.17-44.83-44.19-44.83c-24.69,0-43.86,18.52-43.86,44.83
			c0,26.32,19.17,44.83,43.86,44.83C2675.79,840.94,2694.96,822.42,2694.96,796.1z"/>
		<path class="st2" d="M2911.62,777.58v99.74h-41.91v-94.54c0-22.09-13.32-33.46-32.16-33.46c-20.47,0-35.74,12.02-35.74,40.29
			v87.72h-41.91V714.88h41.91v18.19c9.75-14.62,26.64-22.74,48.41-22.74C2884.66,710.33,2911.62,734.37,2911.62,777.58z"/>
	</g>
</g>
</svg>
